<svg width="40" height="40" viewBox="0 0 40 40" fill="none" xmlns="http://www.w3.org/2000/svg">
<path fill-rule="evenodd" clip-rule="evenodd" d="M6.25 5C5.91848 5 5.60054 5.1317 5.36612 5.36612C5.1317 5.60054 5 5.91848 5 6.25V33.75C5 34.0815 5.1317 34.3995 5.36612 34.6339C5.60054 34.8683 5.91848 35 6.25 35H33.75C34.0815 35 34.3995 34.8683 34.6339 34.6339C34.8683 34.3995 35 34.0815 35 33.75V6.25C35 5.91848 34.8683 5.60054 34.6339 5.36612C34.3995 5.1317 34.0815 5 33.75 5H6.25ZM18.385 25.885L29.635 14.635L27.8675 12.865L17.5 23.2325L12.135 17.865L10.365 19.635L16.615 25.885C16.7311 26.0014 16.8691 26.0938 17.0209 26.1568C17.1728 26.2198 17.3356 26.2522 17.5 26.2522C17.6644 26.2522 17.8272 26.2198 17.9791 26.1568C18.1309 26.0938 18.2689 26.0014 18.385 25.885Z" fill="white"/>
</svg>
