<svg width="40" height="40" viewBox="0 0 40 40" fill="none" xmlns="http://www.w3.org/2000/svg">
<path d="M19.9998 33.9375C24.6661 33.9375 28.4498 27.8537 28.4498 20.35C28.4498 12.8462 24.6661 6.76245 19.9998 6.76245C15.3336 6.76245 11.5498 12.8462 11.5498 20.35C11.5498 27.8537 15.3336 33.9375 19.9998 33.9375ZM27.1998 20.35C27.1998 23.9062 26.2998 27.0662 24.9123 29.2975C23.5148 31.5475 21.7436 32.6875 19.9998 32.6875C18.2561 32.6875 16.4848 31.5475 15.0873 29.2975C14.5628 28.4419 14.1336 27.5315 13.8073 26.5825L26.1198 13.915C26.7986 15.7775 27.1998 17.9762 27.1998 20.35Z" fill="white"/>
<path d="M19.9998 1.25C18.8327 1.24976 17.6836 1.53773 16.6545 2.08834C15.6255 2.63895 14.7484 3.43515 14.101 4.40625L12.821 6.32625C12.4593 6.86954 11.9621 7.30902 11.3785 7.60125L9.39976 8.58875C7.94737 9.3151 6.8347 10.5782 6.29738 12.1106C5.76005 13.6431 5.84026 15.3244 6.52101 16.7988L7.27226 18.4288C7.49958 18.9214 7.61731 19.4575 7.61731 20C7.61731 20.5425 7.49958 21.0786 7.27226 21.5713L6.52101 23.2013C5.84064 24.6754 5.76064 26.3565 6.29794 27.8886C6.83525 29.4208 7.94768 30.6837 9.39976 31.41L11.3785 32.3988C11.9621 32.691 12.4593 33.1305 12.821 33.6738L14.101 35.5938C14.7481 36.5653 15.6251 37.3619 16.6542 37.9129C17.6833 38.4639 18.8325 38.7522 19.9998 38.7522C21.167 38.7522 22.3163 38.4639 23.3453 37.9129C24.3744 37.3619 25.2514 36.5653 25.8985 35.5938L27.1785 33.6738C27.5402 33.1305 28.0374 32.691 28.621 32.3988L30.5998 31.4113C32.0521 30.6849 33.1648 29.4218 33.7021 27.8894C34.2395 26.357 34.1593 24.6756 33.4785 23.2013L32.726 21.5713C32.4987 21.0786 32.381 20.5425 32.381 20C32.381 19.4575 32.4987 18.9214 32.726 18.4288L33.4785 16.7988C34.1589 15.3246 34.2389 13.6435 33.7016 12.1114C33.1643 10.5792 32.0518 9.31634 30.5998 8.59L28.621 7.60125C28.0374 7.30902 27.5402 6.86954 27.1785 6.32625L25.8985 4.40625C25.251 3.43498 24.3737 2.63866 23.3444 2.08804C22.3151 1.53743 21.1658 1.24955 19.9985 1.25M16.1798 5.79375C16.5986 5.16464 17.1663 4.64874 17.8325 4.29191C18.4987 3.93507 19.2428 3.74836 19.9985 3.74836C20.7543 3.74836 21.4983 3.93507 22.1645 4.29191C22.8307 4.64874 23.3985 5.16464 23.8173 5.79375L25.0973 7.71375C25.7006 8.61842 26.5296 9.35002 27.5023 9.83625L29.4798 10.8263C30.351 11.262 31.0185 12.0197 31.3409 12.9389C31.6633 13.8581 31.6154 14.8667 31.2073 15.7513L30.456 17.3813C30.0771 18.2023 29.8809 19.0958 29.8809 20C29.8809 20.9042 30.0771 21.7977 30.456 22.6188L31.2073 24.2488C31.6154 25.1333 31.6633 26.1419 31.3409 27.0611C31.0185 27.9803 30.351 28.738 29.4798 29.1738L27.5023 30.1638C26.5296 30.65 25.7006 31.3816 25.0973 32.2863L23.8173 34.2063C23.3985 34.8354 22.8307 35.3513 22.1645 35.7081C21.4983 36.0649 20.7543 36.2516 19.9985 36.2516C19.2428 36.2516 18.4987 36.0649 17.8325 35.7081C17.1663 35.3513 16.5986 34.8354 16.1798 34.2063L14.8998 32.2863C14.2964 31.3816 13.4674 30.65 12.4948 30.1638L10.5173 29.1738C9.64603 28.738 8.97856 27.9803 8.65614 27.0611C8.33371 26.1419 8.38163 25.1333 8.78976 24.2488L9.54101 22.6188C9.91988 21.7977 10.1161 20.9042 10.1161 20C10.1161 19.0958 9.91988 18.2023 9.54101 17.3813L8.79101 15.75C8.38288 14.8655 8.33496 13.8569 8.65739 12.9377C8.97981 12.0184 9.64728 11.2608 10.5185 10.825L12.496 9.835C13.4687 9.34877 14.2976 8.61717 14.901 7.7125L16.1798 5.79375Z" fill="white"/>
</svg>
