<svg width="40" height="40" viewBox="0 0 40 40" fill="none" xmlns="http://www.w3.org/2000/svg">
<path d="M36.1834 33.8167L33.8167 36.1834C33.5044 36.4938 33.082 36.668 32.6417 36.668C32.2014 36.668 31.779 36.4938 31.4667 36.1834L11.6667 16.4167C11.1247 16.5739 10.5642 16.658 10 16.6667C8.93886 16.6659 7.89321 16.4119 6.95 15.9256C6.0068 15.4394 5.19329 14.735 4.57712 13.8711C3.96095 13.0071 3.55992 12.0086 3.40736 10.9585C3.25481 9.90831 3.35514 8.83693 3.70002 7.83337L7.93335 12.0667L8.81669 11.1834L11.1834 8.81671L12.0667 7.93337L7.83335 3.70004C8.83691 3.35516 9.90829 3.25483 10.9584 3.40738C12.0086 3.55994 13.0071 3.96097 13.8711 4.57714C14.735 5.19332 15.4394 6.00682 15.9256 6.95002C16.4119 7.89323 16.6659 8.93888 16.6667 10C16.658 10.5643 16.5739 11.1248 16.4167 11.6667L36.1834 31.4667C36.4938 31.779 36.668 32.2014 36.668 32.6417C36.668 33.082 36.4938 33.5044 36.1834 33.8167ZM3.81669 31.4667C3.50627 31.779 3.33203 32.2014 3.33203 32.6417C3.33203 33.082 3.50627 33.5044 3.81669 33.8167L6.18335 36.1834C6.49562 36.4938 6.91804 36.668 7.35835 36.668C7.79866 36.668 8.22108 36.4938 8.53335 36.1834L17.65 27.0834L12.9334 22.3667M33.3334 3.33337L26.6667 6.66671V10L23.05 13.6167L26.3834 16.95L30 13.3334H33.3334L36.6667 6.66671L33.3334 3.33337Z" fill="white"/>
</svg>
