<svg width="34" height="34" viewBox="0 0 34 34" fill="none" xmlns="http://www.w3.org/2000/svg">
<g clip-path="url(#clip0_56_56)">
<path d="M1.20406 16.8024C1.20329 19.575 1.93341 22.2823 3.32173 24.6686L1.07129 32.8216L9.4801 30.6339C11.8059 31.8902 14.4117 32.5485 17.0598 32.5487H17.0667C25.8085 32.5487 32.9245 25.4904 32.9283 16.8148C32.93 12.6109 31.2815 8.6578 28.2865 5.68371C25.292 2.70987 21.3094 1.07125 17.0661 1.06934C8.3233 1.06934 1.2078 8.12724 1.20419 16.8024" fill="url(#paint0_linear_56_56)"/>
<path d="M0.63793 16.7974C0.637027 19.6698 1.39332 22.4739 2.83114 24.9456L0.5 33.3909L9.21032 31.1248C11.6103 32.4231 14.3124 33.1077 17.062 33.1087H17.0691C26.1245 33.1087 33.4961 25.7965 33.5 16.8104C33.5015 12.4555 31.7938 8.36027 28.6918 5.27963C25.5894 2.19937 21.4644 0.501791 17.0691 0.5C8.01214 0.5 0.641539 7.81116 0.63793 16.7974ZM5.82525 24.5199L5.50002 24.0076C4.13284 21.8506 3.41122 19.358 3.41225 16.7984C3.41509 9.32929 9.54123 3.25256 17.0743 3.25256C20.7223 3.25409 24.1507 4.66516 26.7293 7.22535C29.3078 9.78579 30.7267 13.1894 30.7258 16.8094C30.7225 24.2785 24.5962 30.356 17.0691 30.356H17.0637C14.6128 30.3548 12.2091 29.7017 10.1128 28.4675L9.61393 28.174L4.44505 29.5186L5.82525 24.5199Z" fill="url(#paint1_linear_56_56)"/>
<path d="M12.9625 9.9841C12.6549 9.30581 12.3313 9.29213 12.0388 9.28023C11.7993 9.27 11.5255 9.27077 11.2519 9.27077C10.9781 9.27077 10.5333 9.37296 10.1573 9.78035C9.78086 10.1881 8.72021 11.1735 8.72021 13.1777C8.72021 15.1819 10.1914 17.1189 10.3965 17.3909C10.6019 17.6625 13.2367 21.907 17.4097 23.5398C20.8777 24.8968 21.5835 24.6269 22.3362 24.5588C23.089 24.4911 24.7653 23.5737 25.1073 22.6225C25.4495 21.6713 25.4495 20.8561 25.3469 20.6857C25.2443 20.516 24.9705 20.414 24.56 20.2104C24.1494 20.0068 22.1308 19.0211 21.7546 18.8851C21.3782 18.7493 21.1045 18.6815 20.8307 19.0894C20.5569 19.4967 19.7707 20.414 19.5311 20.6857C19.2917 20.958 19.052 20.9919 18.6416 20.7881C18.2308 20.5838 16.9086 20.1541 15.3399 18.7665C14.1195 17.6867 13.2955 16.3532 13.056 15.9453C12.8165 15.5381 13.0303 15.3173 13.2362 15.1143C13.4207 14.9318 13.6469 14.6386 13.8524 14.4009C14.0571 14.163 14.1254 13.9932 14.2623 13.7215C14.3993 13.4496 14.3307 13.2117 14.2283 13.008C14.1254 12.8042 13.3276 10.7895 12.9625 9.9841Z" fill="white"/>
</g>
<defs>
<linearGradient id="paint0_linear_56_56" x1="1593.92" y1="3176.3" x2="1593.92" y2="1.06934" gradientUnits="userSpaceOnUse">
<stop stop-color="#1FAF38"/>
<stop offset="1" stop-color="#60D669"/>
</linearGradient>
<linearGradient id="paint1_linear_56_56" x1="1650.5" y1="3289.59" x2="1650.5" y2="0.5" gradientUnits="userSpaceOnUse">
<stop stop-color="#F9F9F9"/>
<stop offset="1" stop-color="white"/>
</linearGradient>
<clipPath id="clip0_56_56">
<rect width="33" height="33" fill="white" transform="translate(0.5 0.5)"/>
</clipPath>
</defs>
</svg>
