<svg width="31" height="34" viewBox="0 0 31 34" fill="none" xmlns="http://www.w3.org/2000/svg">
<g clip-path="url(#clip0_56_54)">
<path d="M4.78571 2.125C2.42188 2.125 0.5 4.03086 0.5 6.375V27.625C0.5 29.9691 2.42188 31.875 4.78571 31.875H26.2143C28.5781 31.875 30.5 29.9691 30.5 27.625V6.375C30.5 4.03086 28.5781 2.125 26.2143 2.125H4.78571ZM24.6808 7.70312L17.7299 15.5789L25.9062 26.2969H19.5045L14.4955 19.7957L8.7567 26.2969H5.57589L13.0089 17.8699L5.16741 7.70312H11.7299L16.2634 13.6465L21.5 7.70312H24.6808ZM22.1496 24.4109L10.7723 9.48945H8.87723L20.3817 24.4109H22.1429H22.1496Z" fill="black"/>
</g>
<defs>
<clipPath id="clip0_56_54">
<rect width="30" height="34" fill="white" transform="translate(0.5)"/>
</clipPath>
</defs>
</svg>
